<svg xmlns="http://www.w3.org/2000/svg" width="80" height="60" viewBox="0 0 80 60"><defs><style>.a{fill:#075da8;}.b{fill:#2d3e50;}</style></defs><path class="a" d="M50.99,109.5a2.981,2.981,0,0,1-1.756-.581,2.944,2.944,0,0,1-1.085-3.341l.471-1.452A1.006,1.006,0,0,0,48.254,103l-1.235-.9A2.988,2.988,0,0,1,48.775,96.7H50.3a1.006,1.006,0,0,0,.959-.7l.472-1.453a2.988,2.988,0,0,1,5.683,0L57.887,96a1.006,1.006,0,0,0,.959.7h1.527A2.988,2.988,0,0,1,62.13,102.1l-1.236.9a1.006,1.006,0,0,0-.366,1.128L61,105.58a2.988,2.988,0,0,1-4.6,3.341l-1.235-.9a1.006,1.006,0,0,0-1.187,0l-1.235.9a2.979,2.979,0,0,1-1.754.582ZM48.774,98.677a1.009,1.009,0,0,0-.594,1.825l1.235.9A2.979,2.979,0,0,1,50.5,104.74l-.471,1.452a1.009,1.009,0,0,0,1.552,1.128l1.235-.9a2.977,2.977,0,0,1,3.512,0l1.235.9a1.009,1.009,0,0,0,1.552-1.128l-.472-1.452a2.98,2.98,0,0,1,1.085-3.34l1.236-.9a1.009,1.009,0,0,0-.594-1.825H58.847a2.981,2.981,0,0,1-2.842-2.064l-.472-1.452a1.008,1.008,0,0,0-1.919,0l-.472,1.452A2.98,2.98,0,0,1,50.3,98.677Z" transform="translate(-38.662 -76.394)"/><path class="a" d="M143.476,87.479H123.489a.989.989,0,0,1,0-1.979h19.986a.989.989,0,1,1,0,1.979Z" transform="translate(-85.58 -72.01)"/><g transform="translate(0 0)"><path class="b" d="M127.639,50.732H68.418a2.924,2.924,0,0,0-2.928,2.912v3.568a.976.976,0,0,0,1.952,0V53.644a.973.973,0,0,1,.976-.971h59.221a.973.973,0,0,1,.976.971V107.82a.973.973,0,0,1-.976.971H68.418a.973.973,0,0,1-.976-.971v-5.707a.976.976,0,0,0-1.952,0v5.707a2.924,2.924,0,0,0,2.928,2.912h59.221a2.924,2.924,0,0,0,2.928-2.912V53.644a2.924,2.924,0,0,0-2.928-2.912Z" transform="translate(-50.568 -50.732)"/><path class="b" d="M50.882,120.615a.989.989,0,0,0,1.611-.769V103.853a3.524,3.524,0,0,1,1.069-.495,5.541,5.541,0,0,0,4.063-5.592,3.522,3.522,0,0,1,.777-2.39,5.541,5.541,0,0,0,0-6.912,3.526,3.526,0,0,1-.776-2.39,5.541,5.541,0,0,0-4.065-5.591,3.529,3.529,0,0,1-2.033-1.477,5.541,5.541,0,0,0-6.573-2.137,3.53,3.53,0,0,1-2.513,0,5.537,5.537,0,0,0-6.573,2.137,3.526,3.526,0,0,1-2.033,1.477,5.541,5.541,0,0,0-4.062,5.591,3.526,3.526,0,0,1-.777,2.39,5.541,5.541,0,0,0,0,6.912,3.526,3.526,0,0,1,.777,2.39,5.541,5.541,0,0,0,4.063,5.592,3.524,3.524,0,0,1,1.069.495v15.992a.989.989,0,0,0,1.611.77l7.183-5.8ZM31.749,97.866a5.5,5.5,0,0,0-1.212-3.73,3.551,3.551,0,0,1,0-4.429,5.5,5.5,0,0,0,1.213-3.731,3.549,3.549,0,0,1,2.6-3.583,5.506,5.506,0,0,0,3.173-2.305,3.551,3.551,0,0,1,4.212-1.369,5.5,5.5,0,0,0,3.922,0,3.55,3.55,0,0,1,4.212,1.369,5.5,5.5,0,0,0,3.171,2.305,3.55,3.55,0,0,1,2.6,3.583,5.506,5.506,0,0,0,1.212,3.731,3.551,3.551,0,0,1,0,4.429,5.5,5.5,0,0,0-1.212,3.73,3.55,3.55,0,0,1-2.6,3.583,5.5,5.5,0,0,0-3.173,2.3,3.551,3.551,0,0,1-4.209,1.369,5.5,5.5,0,0,0-3.922,0,3.551,3.551,0,0,1-4.212-1.369,5.5,5.5,0,0,0-3.173-2.3,3.55,3.55,0,0,1-2.6-3.583Zm5.132,19.907V105.985a5.541,5.541,0,0,0,5.56.987,3.527,3.527,0,0,1,2.514,0,5.445,5.445,0,0,0,1.939.356,5.576,5.576,0,0,0,3.621-1.346v11.794l-6.2-5.007a.989.989,0,0,0-1.244,0Z" transform="translate(-27.785 -67.471)"/><path class="b" d="M123.489,120.679h6.926a.989.989,0,1,0,0-1.979h-6.926a.989.989,0,0,0,0,1.979Z" transform="translate(-85.477 -92.328)"/><path class="b" d="M123.489,145.579h31.662a.989.989,0,1,0,0-1.979H123.489a.989.989,0,0,0,0,1.979Z" transform="translate(-85.903 -107.566)"/><path class="b" d="M123.489,170.479h25.626a.989.989,0,0,0,0-1.979H123.489a.989.989,0,0,0,0,1.979Z" transform="translate(-85.64 -122.805)"/><path class="b" d="M168.008,120.679a.989.989,0,0,0,0-1.979H150.989a.989.989,0,1,0,0,1.979Z" transform="translate(-102.325 -92.328)"/></g></svg>