<svg xmlns="http://www.w3.org/2000/svg" width="43.085" height="60" viewBox="0 0 43.085 60">
  <g id="Group_459" data-name="Group 459" transform="translate(-1048 -2519)">
    <g id="certificate" transform="translate(1048 2519)">
      <g id="Group_373" data-name="Group 373" transform="translate(0 0)">
        <path id="Path_275" data-name="Path 275" d="M59.053,136.216a1.339,1.339,0,0,0,2.181-1.041v-21.65a4.772,4.772,0,0,1,1.447-.67,7.5,7.5,0,0,0,5.5-7.57,4.768,4.768,0,0,1,1.052-3.235,7.5,7.5,0,0,0,0-9.357,4.773,4.773,0,0,1-1.051-3.236,7.5,7.5,0,0,0-5.5-7.57,4.777,4.777,0,0,1-2.753-2,7.5,7.5,0,0,0-8.9-2.893,4.779,4.779,0,0,1-3.4,0,7.5,7.5,0,0,0-8.9,2.893,4.774,4.774,0,0,1-2.753,2,7.5,7.5,0,0,0-5.5,7.57,4.773,4.773,0,0,1-1.052,3.236,7.5,7.5,0,0,0,0,9.357,4.773,4.773,0,0,1,1.051,3.235,7.5,7.5,0,0,0,5.5,7.57,4.772,4.772,0,0,1,1.447.67v21.65a1.339,1.339,0,0,0,2.181,1.042l9.724-7.857Zm-25.9-30.8a7.451,7.451,0,0,0-1.641-5.05,4.808,4.808,0,0,1,0-6,7.447,7.447,0,0,0,1.642-5.05,4.8,4.8,0,0,1,3.524-4.85,7.453,7.453,0,0,0,4.3-3.121,4.808,4.808,0,0,1,5.7-1.853,7.451,7.451,0,0,0,5.31,0,4.806,4.806,0,0,1,5.7,1.853,7.452,7.452,0,0,0,4.292,3.121,4.805,4.805,0,0,1,3.524,4.85,7.453,7.453,0,0,0,1.641,5.05,4.808,4.808,0,0,1,0,6,7.451,7.451,0,0,0-1.641,5.05,4.806,4.806,0,0,1-3.524,4.85,7.451,7.451,0,0,0-4.3,3.12,4.807,4.807,0,0,1-5.7,1.854,7.443,7.443,0,0,0-5.31,0,4.807,4.807,0,0,1-5.7-1.853,7.447,7.447,0,0,0-4.3-3.12,4.806,4.806,0,0,1-3.523-4.851Zm6.947,26.95V116.411a7.5,7.5,0,0,0,7.527,1.336,4.774,4.774,0,0,1,3.4,0,7.371,7.371,0,0,0,2.625.482,7.548,7.548,0,0,0,4.9-1.822v15.966L50.168,125.6a1.339,1.339,0,0,0-1.684,0Z" transform="translate(-27.785 -76.515)" fill="#2d3e50"/>
      </g>
    </g>
    <g id="Group_374" data-name="Group 374" transform="translate(1063 2527.598)">
      <path id="Path_282" data-name="Path 282" d="M197.259,94.029a2.757,2.757,0,0,0-2.754-2.754h-.014V82.54a.647.647,0,1,0-1.294,0v9.382a.647.647,0,0,0,.647.647h.661a1.461,1.461,0,1,1,0,2.921h-5.954a1.461,1.461,0,1,1,0-2.921h1.078a.647.647,0,0,0,.647-.647V80.62a.647.647,0,0,0-1.1-.458l-.514.514a1.461,1.461,0,1,1-2.064-2.068l4.111-4.1a1.461,1.461,0,0,1,2.493,1.034v4.414a.647.647,0,1,0,1.294,0V75.539a2.754,2.754,0,0,0-4.7-1.949l-4.111,4.1a2.754,2.754,0,0,0,3.3,4.347v9.236h-.431a2.754,2.754,0,0,0,0,5.509H194.5A2.757,2.757,0,0,0,197.259,94.029Z" transform="translate(-184.873 -72.784)" fill="#075da8"/>
    </g>
  </g>
</svg>
