<svg xmlns="http://www.w3.org/2000/svg" width="60" height="60" viewBox="0 0 60 60"><defs><style>.a{fill:#075da8;}.b{fill:#2d3e50;}.c{fill:#846f75;}</style></defs><g transform="translate(14.825 13.347)"><path class="a" d="M159.611,128.478a3.493,3.493,0,0,0-3.489-3.489h-6.412a10.534,10.534,0,0,0,2.773-5.534,3.848,3.848,0,0,0-.926-2.976,3.345,3.345,0,0,0-2.5-1.146h-.033a3.478,3.478,0,0,0-3.488,3.46,4.441,4.441,0,0,1-1.265,1.735,9.911,9.911,0,0,1-3.778,2.209,4.628,4.628,0,0,0-1.944,1.272,12.583,12.583,0,0,1-1.311,1.208,1.953,1.953,0,0,0-.917-.228h-6.09a1.969,1.969,0,0,0-1.967,1.967V143.2a1.969,1.969,0,0,0,1.967,1.967h6.09a1.968,1.968,0,0,0,1.72-1.015h15.541a2.981,2.981,0,0,0,2.567-4.5,2.979,2.979,0,0,0,1.015-4.06,2.979,2.979,0,0,0,.911-4.224A3.489,3.489,0,0,0,159.611,128.478Zm-3.489,1.586h-.508a.952.952,0,1,0,0,1.9,1.079,1.079,0,0,1,0,2.157H154.6a.952.952,0,1,0,0,1.9,1.079,1.079,0,1,1,0,2.157h-1.015a.952.952,0,0,0,0,1.9,1.079,1.079,0,1,1,0,2.157H138.29v-9.2a.952.952,0,1,0-1.9,0V143.2a.063.063,0,0,1-.063.063h-6.09a.063.063,0,0,1-.063-.063V126.955a.063.063,0,0,1,.063-.063h6.09a.063.063,0,0,1,.063.063v2.03a.952.952,0,0,0,1.9,0v-2.03c0-.046,0-.091-.007-.137a14.447,14.447,0,0,0,1.656-1.507,2.75,2.75,0,0,1,1.145-.764,11.756,11.756,0,0,0,4.617-2.752,4.962,4.962,0,0,0,1.741-2.986,1.557,1.557,0,0,1,.464-1.114,1.6,1.6,0,0,1,1.137-.459,1.45,1.45,0,0,1,1.089.506,1.969,1.969,0,0,1,.458,1.5c-.208,1.891-1.72,4.228-3.852,5.954a.952.952,0,0,0,.6,1.691h8.785a1.586,1.586,0,0,1,0,3.172Z" transform="translate(-128.267 -115.333)"/></g><g transform="translate(19.027 37.052)"><path class="b" d="M163.387,316.306a.957.957,0,1,0,.957.957A.96.96,0,0,0,163.387,316.306Z" transform="translate(-162.43 -316.306)"/></g><g transform="translate(0 0)"><g transform="translate(0)"><path class="b" d="M58.325,30l1.614-4.271a.939.939,0,0,0-.146-.92l-2.855-3.563.215-4.56a.939.939,0,0,0-.423-.829l-3.816-2.507-1.2-4.4a.939.939,0,0,0-.658-.658l-4.4-1.2L44.143,3.269a.941.941,0,0,0-.829-.423l-4.56.215L35.19.207a.94.94,0,0,0-.92-.146L30,1.675,25.729.061a.939.939,0,0,0-.92.146L21.247,3.061l-4.56-.215a.938.938,0,0,0-.829.423L13.35,7.085l-4.4,1.2a.939.939,0,0,0-.658.658l-1.2,4.4L3.268,15.857a.939.939,0,0,0-.423.829l.215,4.56L.206,24.81a.94.94,0,0,0-.146.92L1.674,30,.06,34.271a.939.939,0,0,0,.146.92l2.855,3.563-.215,4.56a.939.939,0,0,0,.423.829L7.084,46.65l1.2,4.4a.939.939,0,0,0,.658.658l4.4,1.2,2.506,3.816a.942.942,0,0,0,.829.423l4.56-.215,3.563,2.855a.939.939,0,0,0,.92.146L30,58.326,34.27,59.94a.94.94,0,0,0,.919-.146l3.563-2.855,4.56.215a.941.941,0,0,0,.829-.423l2.507-3.816,4.4-1.2a.939.939,0,0,0,.658-.658l1.2-4.4,3.816-2.507a.939.939,0,0,0,.423-.829l-.215-4.56,2.855-3.563a.94.94,0,0,0,.146-.92Zm-1.883.332,1.55,4.1L55.25,37.856a.939.939,0,0,0-.205.632l.207,4.38-3.665,2.407a.939.939,0,0,0-.39.537L50.04,50.041,45.811,51.2a.94.94,0,0,0-.537.39l-2.407,3.665-4.38-.207a.94.94,0,0,0-.632.205l-3.422,2.741-4.1-1.55a.941.941,0,0,0-.664,0l-4.1,1.55-3.422-2.741a.941.941,0,0,0-.632-.205l-4.38.207-2.407-3.665a.939.939,0,0,0-.537-.39L9.959,50.041,8.8,45.812a.94.94,0,0,0-.39-.537L4.748,42.867l.207-4.38a.939.939,0,0,0-.205-.632L2.007,34.434l1.55-4.1a.94.94,0,0,0,0-.664l-1.55-4.1,2.741-3.422a.939.939,0,0,0,.205-.632l-.207-4.38,3.665-2.407a.939.939,0,0,0,.39-.537L9.959,9.96,14.189,8.8a.94.94,0,0,0,.537-.39l2.407-3.665,4.38.207a.94.94,0,0,0,.632-.205l3.422-2.741,4.1,1.55a.94.94,0,0,0,.664,0l4.1-1.55L37.855,4.75a.939.939,0,0,0,.632.205l4.38-.207,2.407,3.665a.939.939,0,0,0,.537.39L50.04,9.96,51.2,14.189a.94.94,0,0,0,.39.537l3.665,2.407-.207,4.38a.939.939,0,0,0,.205.632l2.741,3.422-1.55,4.1A.94.94,0,0,0,56.442,30.332Z" transform="translate(0 0)"/></g></g><g transform="translate(44.571 12.048)"><path class="c" d="M383.71,104.633c-.237-.258-.482-.514-.73-.762s-.5-.494-.762-.73a.952.952,0,0,0-1.287,1.4c.238.218.474.445.7.674s.456.466.674.7a.952.952,0,0,0,1.4-1.287Z" transform="translate(-380.623 -102.89)"/></g><g transform="translate(6.059 6.079)"><path class="b" d="M88.384,55A24.3,24.3,0,0,0,56.735,91.131a.952.952,0,0,0,1.456-1.225,22.4,22.4,0,0,1,29.17-33.3A.952.952,0,0,0,88.384,55Z" transform="translate(-51.047 -51.212)"/></g><g transform="translate(13.62 16.12)"><path class="b" d="M157.736,142.773a.952.952,0,1,0-1.605,1.022,22.4,22.4,0,0,1-33.3,29.17.952.952,0,0,0-1.225,1.456,24.2,24.2,0,0,0,15.617,5.688q.5,0,1-.02a24.3,24.3,0,0,0,19.518-37.316Z" transform="translate(-121.266 -142.332)"/></g></svg>