<svg xmlns="http://www.w3.org/2000/svg" width="30.001" height="30" viewBox="0 0 30.001 30"><defs><style>.a{opacity:0.5;}.b{fill:#2d3e50;}</style></defs><g class="a" transform="translate(0 -0.008)"><path class="b" d="M11.479,22.966A11.479,11.479,0,1,1,22.958,11.487,11.493,11.493,0,0,1,11.479,22.966Zm0-21.146a9.667,9.667,0,1,0,9.666,9.667A9.678,9.678,0,0,0,11.479,1.82Zm0,0"/><path class="b" d="M328.768,329.66a.9.9,0,0,1-.641-.266l-9.135-9.135a.907.907,0,1,1,1.282-1.282l9.135,9.135a.907.907,0,0,1-.642,1.548Zm0,0" transform="translate(-299.674 -299.652)"/></g></svg>