<?xml version="1.0" encoding="utf-8"?>
<!-- Generator: Adobe Illustrator 26.2.1, SVG Export Plug-In . SVG Version: 6.00 Build 0)  -->
<svg version="1.1" id="Layer_1" xmlns="http://www.w3.org/2000/svg" xmlns:xlink="http://www.w3.org/1999/xlink" x="0px" y="0px"
	 viewBox="0 0 86 40" style="enable-background:new 0 0 86 40;" xml:space="preserve">
<style type="text/css">
	.st0{fill:#EE2722;}
	.st1{fill:#ED2224;}
	.st2{fill:#252F3E;}
	.st3{fill-rule:evenodd;clip-rule:evenodd;fill:#FF9900;}
	.st4{clip-path:url(#SVGID_00000079446844879307825570000017548534364661398451_);}
	.st5{fill:#049FD9;}
	.st6{fill:#E52521;}
	.st7{fill:#706D6E;}
	.st8{fill:#F1511B;}
	.st9{fill:#80CC28;}
	.st10{fill:#00ADEF;}
	.st11{fill:#FBBC09;}
	.st12{fill:#FFFFFF;}
	.st13{clip-path:url(#SVGID_00000077323638719704801630000018069723001524815803_);}
	.st14{fill:#24514A;}
</style>
<g>
	<path class="st14" d="M11.6,40C5.6,35.5,0,29.9,0,20.1C0,11,8.1,3,12.9,0l1.9,1.1C2,12.4,1.9,28.9,13.9,38.7L11.6,40z"/>
	<path class="st14" d="M13.2,33.7V7.3h3.5v26.4H13.2z M36.2,25.9c0,1-0.2,2-0.5,3c-0.3,1-0.8,1.8-1.4,2.5c-0.7,0.7-1.4,1.3-2.3,1.7
		c-0.9,0.4-2,0.6-3.2,0.6c-1.3,0-2.6-0.2-3.6-0.5c-1.1-0.3-2.2-0.9-3.3-1.5v-4.3H22c0.9,1.1,2,1.9,3.3,2.5c1.2,0.6,2.4,0.8,3.5,0.9
		c5,0.3,5.3-5.9,2.4-7.5c-0.6-0.3-1.6-1.1-2.4-1.5c-1.9-1.2-4.4-2.2-5.6-3.9c-0.8-1.2-1.2-1.5-1.2-3.4c0-2.1,0.7-3.9,2-5.3
		c1.3-1.4,3-2.1,5-2.1c1.3,0,2.5,0.2,3.6,0.5c1.1,0.3,2.1,0.8,2.9,1.3v4h-0.2c-0.7-0.8-1.6-1.5-2.8-2.1c-1.2-0.5-2-0.5-3.2-0.6
		C24.6,10.1,24,14.7,27,17c2.6,2,5.3,2.5,7.6,4.8C35.6,22.7,36.2,24.1,36.2,25.9L36.2,25.9z M62.3,31.6
		c-10.2,4.7-23.2,1.5-23.2-11.1C39.1,8,52.8,4.8,62.3,9.2v3.9H62c-6.5-5.2-19.7-3.1-19.7,7.4c0,10.9,13.5,12.4,19.7,7.3h0.3
		L62.3,31.6z"/>
	<path class="st14" d="M61.8,40c6-4.5,11.6-10.1,11.6-19.9C73.5,11,65.3,3,60.5,0l-1.9,1.1c12.8,11.3,12.9,27.8,1,37.6L61.8,40z
		 M74.9,15.2v-0.2l2.8-4.2c0.6-0.9,0.9-1.6,0.9-2.3c0-0.8-0.5-1.2-1.4-1.2c-0.3,0-0.6,0.1-0.9,0.3c-0.3,0.2-0.5,0.4-0.6,0.6
		l-0.8-0.6c0.1-0.4,0.4-0.7,0.8-0.9s0.9-0.3,1.4-0.3c0.8,0,1.5,0.2,2,0.6c0.5,0.4,0.7,0.9,0.7,1.7c0,0.7-0.3,1.5-0.9,2.5l-2,3.1h3.4
		v1.1L74.9,15.2z M81,9.3c0-0.7,0.2-1.3,0.7-1.8c0.5-0.5,1.1-0.7,1.8-0.7c0.7,0,1.3,0.3,1.8,0.7C85.8,8,86,8.6,86,9.3
		c0,0.7-0.2,1.3-0.7,1.8c-0.5,0.5-1.1,0.7-1.8,0.7s-1.3-0.2-1.8-0.7C81.3,10.6,81,10,81,9.3L81,9.3z M85.6,9.3
		c0-0.6-0.2-1.1-0.6-1.5c-0.4-0.4-0.9-0.6-1.5-0.6c-0.6,0-1.1,0.2-1.5,0.6s-0.6,0.9-0.6,1.5c0,0.6,0.2,1.1,0.6,1.5
		c0.4,0.4,0.9,0.6,1.5,0.6c0.6,0,1.1-0.2,1.5-0.6C85.4,10.4,85.6,9.9,85.6,9.3L85.6,9.3z M84.3,10.8l-0.8-1.3h-0.4v1.3h-0.4V7.7h0.8
		c0.7,0,1.1,0.3,1.1,0.9c0,0.4-0.2,0.7-0.6,0.8l0.8,1.4L84.3,10.8z M83.1,8.1v1c0,0,0.1,0,0.3,0c0.3,0,0.5,0,0.6-0.1
		s0.1-0.2,0.1-0.4c0-0.3-0.2-0.5-0.7-0.5h-0.2L83.1,8.1z"/>
</g>
</svg>
