<svg xmlns="http://www.w3.org/2000/svg" width="134.493" height="40.87" viewBox="0 0 134.493 40.87"><defs><style>.a{fill:#05bfe0;}.a,.b,.c,.d,.e{fill-rule:evenodd;}.b{fill:#ff610f;}.c{fill:#231f20;}.d{fill:#4f17a8;}</style></defs><g transform="translate(0 -0.363)"><g transform="translate(0 0.363)"><path class="a" d="M14.222,43.486a4.742,4.742,0,0,1,4.739-4.744h.008V34H0v4.742a4.741,4.741,0,0,1,4.741,4.742v0A4.741,4.741,0,0,1,0,48.227v4.742H18.969V48.227a4.741,4.741,0,0,1-4.747-4.736Z" transform="translate(0 -12.731)"/><path class="b" d="M41.485,11.482A9.484,9.484,0,0,0,32,2V20.969a9.484,9.484,0,0,0,9.485-9.482,9.484,9.484,0,0,0,9.484,9.482V2a9.484,9.484,0,0,0-9.484,9.482" transform="translate(-11.767 -0.965)"/><path class="c" d="M12.44,11.485H3.566V5.565H12.44a2.96,2.96,0,0,1,0,5.919Zm.592-9.455c-.2-.019-.393-.03-.592-.03H0V20.969H3.552V15.049H12.44a3.939,3.939,0,0,0,.592-.03,6.517,6.517,0,0,0,0-12.982Z" transform="translate(0 -0.965)"/><path class="d" d="M32,60.691V55l5.691,5.691Z" transform="translate(-11.767 -20.453)"/><path class="d" d="M43.509,54.807,33,44.3V39L48.807,54.807Z" transform="translate(-12.134 -14.57)"/><path class="d" d="M59.691,34v5.691L54,34Z" transform="translate(-19.856 -12.731)"/><path class="d" d="M52.807,49.807,37,34h5.315L52.807,44.492Z" transform="translate(-13.605 -12.731)"/><path class="e" d="M65.085,62h.272l.454,1.021L66.257,62h.272v1.265h-.2v-.989l-.435.989h-.187l-.432-.989v.989h-.2Zm-.707.178H64V62h.955v.178h-.376v1.08h-.2Z" transform="translate(-23.533 -23.027)"/><path class="e" d="M82.108,5.89a2.2,2.2,0,0,0,.947-.2,1.624,1.624,0,0,0,.658-.558,1.378,1.378,0,0,0,.235-.788,1.423,1.423,0,0,0-.23-.805,1.572,1.572,0,0,0-.65-.547,2.228,2.228,0,0,0-.96-.2H80.252V5.879ZM78,1h4.482a4.329,4.329,0,0,1,1.795.39,3.455,3.455,0,0,1,1.4,1.145,3.035,3.035,0,0,1,.535,1.821,3.134,3.134,0,0,1-.481,1.711A3.289,3.289,0,0,1,84.4,7.259a4.259,4.259,0,0,1-1.944.435H80.249v3.423H78Z" transform="translate(-28.681 -0.597)"/><path class="e" d="M93,5.211h1.656l.319,1.082a2.1,2.1,0,0,1,.817-.962A2.3,2.3,0,0,1,97.019,5a2.154,2.154,0,0,1,1.125.291,2.27,2.27,0,0,1,.8.817,2.937,2.937,0,0,1,.381,1.212l-1.754.46a1.354,1.354,0,0,0-.37-.9,1.111,1.111,0,0,0-.817-.361,1.076,1.076,0,0,0-.67.224,1.449,1.449,0,0,0-.463.624,2.382,2.382,0,0,0-.163.9v3.688H93Z" transform="translate(-34.197 -2.068)"/><path class="e" d="M108.737,10.082a1.653,1.653,0,0,0,.639-.651,2.119,2.119,0,0,0,0-1.906,1.683,1.683,0,0,0-.639-.654,1.84,1.84,0,0,0-.921-.237,1.816,1.816,0,0,0-.921.237,1.667,1.667,0,0,0-.632.651,2.1,2.1,0,0,0,0,1.906,1.635,1.635,0,0,0,.632.651,1.8,1.8,0,0,0,.926.237,1.814,1.814,0,0,0,.916-.235Zm-2.894,1.439A3.249,3.249,0,0,1,104.5,10.3a3.43,3.43,0,0,1-.5-1.823,3.423,3.423,0,0,1,.479-1.822,3.254,3.254,0,0,1,1.363-1.222,4.7,4.7,0,0,1,3.946,0A3.229,3.229,0,0,1,111.1,6.656a3.419,3.419,0,0,1,.482,1.822A3.42,3.42,0,0,1,111.1,10.3a3.231,3.231,0,0,1-1.339,1.219,4.694,4.694,0,0,1-3.947,0Z" transform="translate(-38.241 -2.068)"/><g transform="translate(71.018)"><path class="e" d="M3.559,2.41a1.134,1.134,0,0,1-.349-.861A1.12,1.12,0,0,1,3.551.691a1.367,1.367,0,0,1,1.776,0,1.126,1.126,0,0,1,.344.847,1.138,1.138,0,0,1-.344.861,1.367,1.367,0,0,1-1.776,0ZM1.29,13.638a2.365,2.365,0,0,1-.972-.781l.918-1.19a1.341,1.341,0,0,0,.493.534,1.271,1.271,0,0,0,.658.19.949.949,0,0,0,.894-.57,1.459,1.459,0,0,0,.122-.609V3.664H5.46v7.854a2.27,2.27,0,0,1-1.324,2.1,3.228,3.228,0,0,1-1.433.3,3.367,3.367,0,0,1-1.414-.289Z" transform="translate(-0.317 -0.363)"/></g><path class="e" d="M125.01,6.619a1.42,1.42,0,0,0-.565.5,2.052,2.052,0,0,0-.3.756h3.192a1.9,1.9,0,0,0-.256-.756,1.489,1.489,0,0,0-1.3-.7,1.673,1.673,0,0,0-.769.192m2.716-1.162a3.04,3.04,0,0,1,1.266,1.213,3.584,3.584,0,0,1,.448,1.808v.3a2.4,2.4,0,0,1-.021.252h-5.275a1.534,1.534,0,0,0,.369.8,1.978,1.978,0,0,0,.78.529,2.812,2.812,0,0,0,1.038.184,2.985,2.985,0,0,0,1.2-.252,1.884,1.884,0,0,0,.815-.613l1.239.817a2.7,2.7,0,0,1-1.334,1.054,5.4,5.4,0,0,1-2.119.4,4.833,4.833,0,0,1-2.119-.451,3.647,3.647,0,0,1-1.472-1.261A3.17,3.17,0,0,1,122,8.425a3.261,3.261,0,0,1,.486-1.783,3.36,3.36,0,0,1,1.358-1.208A4.31,4.31,0,0,1,125.8,5a4.085,4.085,0,0,1,1.923.456" transform="translate(-44.86 -2.068)"/><path class="e" d="M136.884,11.519a3.376,3.376,0,0,1-1.383-1.243,3.322,3.322,0,0,1-.5-1.8,3.463,3.463,0,0,1,.473-1.8,3.256,3.256,0,0,1,1.3-1.235A3.928,3.928,0,0,1,138.664,5a4.149,4.149,0,0,1,1.545.288,3.428,3.428,0,0,1,1.219.8,2.453,2.453,0,0,1,.642,1.177l-1.891.447a1.421,1.421,0,0,0-.54-.813,1.536,1.536,0,0,0-.938-.313,1.5,1.5,0,0,0-.835.237,1.6,1.6,0,0,0-.581.672,2.2,2.2,0,0,0-.214.985,2.018,2.018,0,0,0,.241.985,1.709,1.709,0,0,0,.648.672,1.945,1.945,0,0,0,1.754.05,1.811,1.811,0,0,0,.635-.5,1.562,1.562,0,0,0,.321-.73l1.916.253a2.761,2.761,0,0,1-.635,1.419,3.6,3.6,0,0,1-1.335.978,4.6,4.6,0,0,1-3.729-.088Z" transform="translate(-49.64 -2.068)"/><path class="e" d="M149.7,11.178a2.207,2.207,0,0,1-.966-.878,2.651,2.651,0,0,1-.327-1.352V5.892H147V4.35h1.411v-1.9L150.567,2l-.018,2.35h2.974V5.892h-2.974l.015,2.742a1.237,1.237,0,0,0,.316.886,1.074,1.074,0,0,0,.818.325,1.484,1.484,0,0,0,.873-.267,2.049,2.049,0,0,0,.626-.728l.759,1.2a2.965,2.965,0,0,1-1.095,1.067,3.3,3.3,0,0,1-1.606.363,3.492,3.492,0,0,1-1.552-.3" transform="translate(-54.053 -0.965)"/><path class="e" d="M78,25h1.706l3.668,8.26L87.043,25h1.706v9.484H87.57v-7.87L84,34.484H82.749l-3.57-7.856v7.856H78Z" transform="translate(-28.681 -9.422)"/><path class="e" d="M101,34.787a2.123,2.123,0,0,0,.844-.755,2,2,0,0,0,.314-1.092v-.463l-2.047.251a3.817,3.817,0,0,0-1.614.47.962.962,0,0,0-.484.787.885.885,0,0,0,.492.777,2.471,2.471,0,0,0,1.28.294A2.66,2.66,0,0,0,101,34.787m-2.743.918a2.144,2.144,0,0,1-.92-.689A1.632,1.632,0,0,1,97,34.01a1.6,1.6,0,0,1,.308-.961,2.429,2.429,0,0,1,.961-.732,5.625,5.625,0,0,1,1.712-.423l1.626-.191a.674.674,0,0,0,.4-.159.433.433,0,0,0,.15-.337,1,1,0,0,0-.259-.694,1.773,1.773,0,0,0-.707-.465,2.734,2.734,0,0,0-.966-.166,2.549,2.549,0,0,0-1.083.224,2.067,2.067,0,0,0-.759.573,1.27,1.27,0,0,0-.308.719l-.907-.37a1.87,1.87,0,0,1,.479-.994,2.849,2.849,0,0,1,1.1-.755A4.008,4.008,0,0,1,100.266,29a3.655,3.655,0,0,1,1.5.292,2.407,2.407,0,0,1,1.023.828,2.145,2.145,0,0,1,.369,1.238v3.27a.462.462,0,0,0,.1.32.323.323,0,0,0,.259.116.487.487,0,0,0,.278-.1,1.022,1.022,0,0,0,.259-.279l.539.611a1.432,1.432,0,0,1-.586.483,1.744,1.744,0,0,1-.754.178,1.045,1.045,0,0,1-1.1-.981.888.888,0,0,1,0-.1v-.252a2.543,2.543,0,0,1-.611.707,2.633,2.633,0,0,1-.873.461,3.521,3.521,0,0,1-1.075.158,3.446,3.446,0,0,1-1.334-.241" transform="translate(-35.667 -10.893)"/><path class="e" d="M110,29.265h.954l.095.981a2.483,2.483,0,0,1,1.009-.915A3,3,0,0,1,113.437,29a2.927,2.927,0,0,1,1.512.384,2.659,2.659,0,0,1,1.014,1.046,3.148,3.148,0,0,1,.36,1.517v4h-1.063v-4a2.305,2.305,0,0,0-.234-1.046,1.733,1.733,0,0,0-.676-.722,2.019,2.019,0,0,0-1.036-.261,2.211,2.211,0,0,0-2.265,2.152v3.879H110Z" transform="translate(-40.448 -10.893)"/><path class="e" d="M125.993,34.785a2.142,2.142,0,0,0,.847-.755,2,2,0,0,0,.3-1.089v-.465l-2.046.251a3.806,3.806,0,0,0-1.613.47.96.96,0,0,0-.485.787.882.882,0,0,0,.493.777,2.47,2.47,0,0,0,1.279.294,2.649,2.649,0,0,0,1.225-.272m-2.74.918a2.117,2.117,0,0,1-.919-.689A1.632,1.632,0,0,1,122,34.008a1.605,1.605,0,0,1,.308-.961,2.393,2.393,0,0,1,.971-.732,5.608,5.608,0,0,1,1.712-.423l1.627-.191a.663.663,0,0,0,.4-.159.432.432,0,0,0,.153-.324,1,1,0,0,0-.259-.694,1.784,1.784,0,0,0-.709-.465,2.7,2.7,0,0,0-.964-.166,2.534,2.534,0,0,0-1.082.224,2.1,2.1,0,0,0-.767.561,1.3,1.3,0,0,0-.308.719l-.9-.37a1.855,1.855,0,0,1,.479-.993,2.845,2.845,0,0,1,1.1-.755A3.982,3.982,0,0,1,125.271,29a3.663,3.663,0,0,1,1.483.294,2.426,2.426,0,0,1,1.036.827,2.144,2.144,0,0,1,.367,1.238v3.27a.477.477,0,0,0,.1.319.329.329,0,0,0,.259.116.492.492,0,0,0,.277-.1,1.029,1.029,0,0,0,.259-.279l.539.611a1.462,1.462,0,0,1-.585.483,1.74,1.74,0,0,1-.754.178,1.05,1.05,0,0,1-1.1-.989.9.9,0,0,1,0-.093v-.251a2.468,2.468,0,0,1-.609.706,2.643,2.643,0,0,1-.873.46,3.528,3.528,0,0,1-1.074.159,3.457,3.457,0,0,1-1.337-.244" transform="translate(-44.86 -10.893)"/><path class="e" d="M139.373,35.149a2.442,2.442,0,0,0,.9-.981,3.015,3.015,0,0,0,.317-1.409,3.2,3.2,0,0,0-.325-1.453,2.457,2.457,0,0,0-.9-1.008,2.344,2.344,0,0,0-1.273-.363,2.39,2.39,0,0,0-2.187,1.374,3.207,3.207,0,0,0-.322,1.451,2.946,2.946,0,0,0,.33,1.406,2.433,2.433,0,0,0,3.452.981Zm-3.2,4.321a4,4,0,0,1-1.332-.78A3.331,3.331,0,0,1,134,37.537l.863-.613a2.3,2.3,0,0,0,.58.967,2.9,2.9,0,0,0,1.018.659,3.5,3.5,0,0,0,1.3.239,2.887,2.887,0,0,0,1.457-.363,2.5,2.5,0,0,0,.98-1,2.952,2.952,0,0,0,.347-1.442v-.942a3.131,3.131,0,0,1-1.108,1.05,2.975,2.975,0,0,1-1.484.371,3.267,3.267,0,0,1-1.748-.481,3.35,3.35,0,0,1-1.215-1.322,4.078,4.078,0,0,1-.436-1.9,4.22,4.22,0,0,1,.436-1.923A3.247,3.247,0,0,1,137.956,29a3,3,0,0,1,2.605,1.409l.106-1.168h.919V35.99a3.851,3.851,0,0,1-.493,1.942,3.42,3.42,0,0,1-1.349,1.335,3.943,3.943,0,0,1-1.958.481,4.753,4.753,0,0,1-1.612-.277Z" transform="translate(-49.273 -10.893)"/><path class="e" d="M150.293,30.15a2.153,2.153,0,0,0-.825.726,2.61,2.61,0,0,0-.415,1.074h4.606a2.674,2.674,0,0,0-.375-1.079,1.994,1.994,0,0,0-.777-.721,2.26,2.26,0,0,0-1.084-.252,2.44,2.44,0,0,0-1.131.252m2.876-.716a3.017,3.017,0,0,1,1.157,1.22,3.811,3.811,0,0,1,.429,1.765v.186a1.854,1.854,0,0,1-.013.2h-5.69a2.422,2.422,0,0,0,1.38,2,3.1,3.1,0,0,0,2.725-.058,2.155,2.155,0,0,0,.917-.882l.883.345a2.755,2.755,0,0,1-1.224,1.26,4.312,4.312,0,0,1-3.925.038,3.335,3.335,0,0,1-1.321-1.26,3.687,3.687,0,0,1-.042-3.582,3.18,3.18,0,0,1,1.232-1.22A3.6,3.6,0,0,1,151.456,29a3.352,3.352,0,0,1,1.713.434" transform="translate(-54.42 -10.893)"/><path class="e" d="M160,29.273h.909l.112.833a2.235,2.235,0,0,1,.868-.812,2.529,2.529,0,0,1,1.2-.285,2.967,2.967,0,0,1,1.507.376,2.258,2.258,0,0,1,.957,1.026,2.559,2.559,0,0,1,.971-1.019,2.788,2.788,0,0,1,3.747.84c.043.066.082.135.119.2a3.147,3.147,0,0,1,.359,1.515v4h-1.061v-4a2.274,2.274,0,0,0-.233-1.045,1.761,1.761,0,0,0-1.614-.982,2.029,2.029,0,0,0-1.012.261,1.755,1.755,0,0,0-.7.723,2.171,2.171,0,0,0-.248,1.045v4.007h-1.047v-4.01a2.331,2.331,0,0,0-.228-1.045,1.688,1.688,0,0,0-.647-.708,1.858,1.858,0,0,0-.972-.261,2.023,2.023,0,0,0-1.02.261,1.742,1.742,0,0,0-.68.708,2.221,2.221,0,0,0-.242,1.045v4.01H160Z" transform="translate(-58.833 -10.893)"/><path class="e" d="M181.312,30.144a2.158,2.158,0,0,0-.836.727,2.615,2.615,0,0,0-.415,1.075h4.609a2.671,2.671,0,0,0-.376-1.08,1.99,1.99,0,0,0-.777-.722,2.26,2.26,0,0,0-1.084-.252,2.443,2.443,0,0,0-1.127.252Zm2.866-.717a3.019,3.019,0,0,1,1.158,1.221,3.885,3.885,0,0,1,.429,1.767V32.6a1.7,1.7,0,0,1-.013.2h-5.7a2.405,2.405,0,0,0,1.375,2,3.1,3.1,0,0,0,2.726-.058,2.157,2.157,0,0,0,.917-.883l.883.346a2.753,2.753,0,0,1-1.227,1.262,4.307,4.307,0,0,1-3.924.038,3.367,3.367,0,0,1-1.323-1.261A3.537,3.537,0,0,1,179,32.412a3.494,3.494,0,0,1,.441-1.751,3.181,3.181,0,0,1,1.232-1.221A3.606,3.606,0,0,1,182.457,29a3.352,3.352,0,0,1,1.721.426Z" transform="translate(-65.819 -10.893)"/><path class="e" d="M193,29.265h.95l.1.981a2.484,2.484,0,0,1,1.007-.915A2.986,2.986,0,0,1,196.432,29a2.933,2.933,0,0,1,1.519.384,2.661,2.661,0,0,1,1.012,1.046,3.161,3.161,0,0,1,.359,1.517v4h-1.062v-4a2.3,2.3,0,0,0-.234-1.046,1.735,1.735,0,0,0-.678-.722,1.99,1.99,0,0,0-1.031-.261,2.3,2.3,0,0,0-1.124.285,2.213,2.213,0,0,0-.817.785,2.068,2.068,0,0,0-.31,1.119v3.842h-1.048Z" transform="translate(-70.967 -10.893)"/><g transform="translate(127.939 15.706)"><path class="e" d="M3.087,9.777A2.065,2.065,0,0,1,2.259,9a2.221,2.221,0,0,1-.29-1.146V3.488H.341v-.9H1.969V.458L3.084.2v2.39h3.31v.9H3.081V7.726a1.411,1.411,0,0,0,.359,1,1.234,1.234,0,0,0,.958.393,1.534,1.534,0,0,0,1.028-.393A1.668,1.668,0,0,0,5.986,7.67l.909.371a2.21,2.21,0,0,1-.889,1.466,2.782,2.782,0,0,1-1.709.561,2.559,2.559,0,0,1-1.211-.292" transform="translate(-0.341 -0.203)"/></g><path class="e" d="M78,58.484h1.265V49H78Z" transform="translate(-28.681 -18.247)"/><path class="e" d="M82,53.265h.952l.1.982a2.47,2.47,0,0,1,1.006-.914A2.981,2.981,0,0,1,85.438,53a2.942,2.942,0,0,1,1.513.385,2.666,2.666,0,0,1,1.014,1.047,3.145,3.145,0,0,1,.357,1.516v4.006h-1.06V55.949a2.28,2.28,0,0,0-.237-1.047,1.716,1.716,0,0,0-.676-.723,2.013,2.013,0,0,0-1.036-.262,2.307,2.307,0,0,0-1.123.283,2.243,2.243,0,0,0-.818.786,2.08,2.08,0,0,0-.311,1.121v3.846H82Z" transform="translate(-30.152 -19.718)"/><path class="e" d="M95.734,59.653a3.164,3.164,0,0,1-1.183-.782A2.109,2.109,0,0,1,94,57.736l1.046-.191a1.357,1.357,0,0,0,.349.785,1.994,1.994,0,0,0,.826.541,3.14,3.14,0,0,0,1.123.191,3.207,3.207,0,0,0,1-.146,1.756,1.756,0,0,0,.7-.407.823.823,0,0,0,.259-.581.647.647,0,0,0-.276-.541,1.949,1.949,0,0,0-.7-.319c-.275-.07-.636-.146-1.073-.221a13.816,13.816,0,0,1-1.492-.32,2.353,2.353,0,0,1-.969-.541,1.363,1.363,0,0,1-.4-1.039,1.59,1.59,0,0,1,.342-.994,2.311,2.311,0,0,1,.933-.7A3.375,3.375,0,0,1,97,53a3.655,3.655,0,0,1,1.324.229,2.794,2.794,0,0,1,1,.631,1.914,1.914,0,0,1,.523.911l-1.015.251a1.181,1.181,0,0,0-.581-.84,2.261,2.261,0,0,0-1.26-.332A2.042,2.042,0,0,0,96.2,54a1.4,1.4,0,0,0-.564.4.828.828,0,0,0-.209.553.594.594,0,0,0,.275.523,1.706,1.706,0,0,0,.493.251c.14.033.578.11,1.31.229a10.961,10.961,0,0,1,1.445.35,2.619,2.619,0,0,1,.983.573,1.3,1.3,0,0,1,.391.976,1.663,1.663,0,0,1-.391,1.076,2.614,2.614,0,0,1-1.068.755,4.012,4.012,0,0,1-1.524.274,4.283,4.283,0,0,1-1.6-.3" transform="translate(-34.564 -19.718)"/><path class="e" d="M106.651,59.2a1.961,1.961,0,0,1-.8-.759,2.168,2.168,0,0,1-.279-1.1V53.159H104V52.3h1.57V50.249L106.646,50v2.3h3.185v.861h-3.188v4.077a1.363,1.363,0,0,0,.346.964,1.2,1.2,0,0,0,.928.376,1.468,1.468,0,0,0,.989-.376,1.614,1.614,0,0,0,.539-1.02l.878.356a2.124,2.124,0,0,1-.858,1.409,2.672,2.672,0,0,1-1.648.54,2.434,2.434,0,0,1-1.165-.281" transform="translate(-38.241 -18.615)"/><path class="e" d="M115.286,50.931h1.278v7.186H115.3Zm-.023-1.57a.718.718,0,0,1-.262-.579.7.7,0,0,1,.262-.562,1.02,1.02,0,0,1,.68-.219,1.064,1.064,0,0,1,.684.222.7.7,0,0,1,.269.562.715.715,0,0,1-.269.579,1.063,1.063,0,0,1-.69.219,1.016,1.016,0,0,1-.674-.222Z" transform="translate(-42.286 -17.879)"/><path class="e" d="M120.651,59.214a1.962,1.962,0,0,1-.8-.759,2.16,2.16,0,0,1-.279-1.1V53.162H118V52.3h1.571V50.249L120.646,50v2.3h3.2v.862h-3.205v4.081a1.366,1.366,0,0,0,.347.965,1.2,1.2,0,0,0,.928.376,1.468,1.468,0,0,0,.989-.376,1.616,1.616,0,0,0,.539-1.021l.878.346a2.135,2.135,0,0,1-.855,1.411,2.682,2.682,0,0,1-1.651.54,2.428,2.428,0,0,1-1.165-.27" transform="translate(-43.389 -18.615)"/><path class="e" d="M130.377,60.578a2.612,2.612,0,0,1-1.019-1.046A3.177,3.177,0,0,1,129,58V54h1.052v4a2.219,2.219,0,0,0,.24,1.046,1.836,1.836,0,0,0,.685.722,1.977,1.977,0,0,0,1.038.261,2.257,2.257,0,0,0,1.112-.285,2.218,2.218,0,0,0,.819-.785,2.053,2.053,0,0,0,.311-1.119V54h1.065v6.691h-.954l-.112-.981a2.377,2.377,0,0,1-1,.915,3.024,3.024,0,0,1-1.365.329,2.984,2.984,0,0,1-1.513-.377" transform="translate(-47.434 -20.086)"/><path class="e" d="M142.649,59.214a1.968,1.968,0,0,1-.8-.759,2.16,2.16,0,0,1-.279-1.1V53.162H140V52.3h1.571V50.249L142.646,50v2.3h3.2v.862h-3.2v4.081a1.366,1.366,0,0,0,.346.965,1.2,1.2,0,0,0,.928.376,1.479,1.479,0,0,0,.989-.376,1.619,1.619,0,0,0,.539-1.022l.878.346a2.129,2.129,0,0,1-.858,1.411,2.67,2.67,0,0,1-1.648.54,2.446,2.446,0,0,1-1.168-.27" transform="translate(-51.479 -18.615)"/><path class="e" d="M153.29,54.154a2.173,2.173,0,0,0-.822.729,2.584,2.584,0,0,0-.415,1.073h4.606a2.6,2.6,0,0,0-.375-1.08,2.022,2.022,0,0,0-.775-.722,2.274,2.274,0,0,0-1.087-.252,2.452,2.452,0,0,0-1.124.252Zm2.867-.717a2.983,2.983,0,0,1,1.158,1.221,3.852,3.852,0,0,1,.431,1.766v.187a1.211,1.211,0,0,1-.016.2h-5.682a2.46,2.46,0,0,0,.428,1.183,2.435,2.435,0,0,0,.952.805,3.094,3.094,0,0,0,2.724-.058,2.151,2.151,0,0,0,.917-.88l.886.343a2.766,2.766,0,0,1-1.227,1.262,4.316,4.316,0,0,1-3.924.041,3.361,3.361,0,0,1-1.322-1.262A3.545,3.545,0,0,1,151,56.412a3.474,3.474,0,0,1,.441-1.751,3.151,3.151,0,0,1,1.232-1.219A3.578,3.578,0,0,1,154.457,53a3.334,3.334,0,0,1,1.7.437Z" transform="translate(-55.524 -19.718)"/><path class="e" d="M164.85,63.26a1.1,1.1,0,0,0,.407-.406,1.225,1.225,0,0,0,0-1.167,1.086,1.086,0,0,0-.407-.414,1.169,1.169,0,0,0-.579-.148,1.148,1.148,0,0,0-.589.148,1.036,1.036,0,0,0-.41.41,1.163,1.163,0,0,0-.148.589,1.15,1.15,0,0,0,.148.582,1.058,1.058,0,0,0,.41.407,1.188,1.188,0,0,0,.589.144,1.159,1.159,0,0,0,.579-.145m-1.237.107a1.186,1.186,0,0,1-.451-.452,1.254,1.254,0,0,1-.162-.648,1.29,1.29,0,0,1,.165-.651,1.225,1.225,0,0,1,.451-.451,1.292,1.292,0,0,1,.651-.166,1.277,1.277,0,0,1,.647.162,1.219,1.219,0,0,1,.452.455,1.33,1.33,0,0,1,.162.651,1.308,1.308,0,0,1-.162.648,1.185,1.185,0,0,1-.452.452,1.274,1.274,0,0,1-.647.162,1.3,1.3,0,0,1-.655-.162" transform="translate(-59.936 -22.659)"/><path class="e" d="M164.254,62.563v-.415h.368a.551.551,0,0,1,.268.056.169.169,0,0,1,.1.153.163.163,0,0,1-.1.15.526.526,0,0,1-.261.056Zm1.011.68-.419-.536a.664.664,0,0,0,.136-.035.352.352,0,0,0,.273-.321.278.278,0,0,0-.066-.18.444.444,0,0,0-.191-.126.783.783,0,0,0-.279-.046H164v1.251h.254v-.522h.32l.408.536Z" transform="translate(-60.304 -23.027)"/></g></g></svg>